<?xml version="1.0" encoding="utf-8"?>
<svg version="1.1" xmlns="http://www.w3.org/2000/svg" xmlns:xlink="http://www.w3.org/1999/xlink" x="0px" y="0px" viewBox="0 0 256 256" enable-background="new 0 0 256 256" xml:space="preserve">
<g><g><path fill="#ffffff" d="M128,32.1c-25.6,0-49.7,10-67.8,28.1C42.1,78.3,32.1,102.4,32.1,128c0,25.6,10,49.7,28.1,67.8c18.1,18.1,42.2,28.1,67.8,28.1c25.6,0,49.7-10,67.8-28.1c18.1-18.1,28.1-42.2,28.1-67.8c0-25.6-10-49.7-28.1-67.8C177.7,42.1,153.6,32.1,128,32.1L128,32.1z M128,10L128,10c65.2,0,118,52.8,118,118c0,65.2-52.8,118-118,118c-65.2,0-118-52.8-118-118C10,62.8,62.8,10,128,10L128,10z M81.2,101.4c0.3-11.1,1.6-19.5,3.9-25.3c2.3-5.8,6-10.9,11.1-15.4c5.1-4.5,10.7-7.9,17-10c6.2-2.1,12.8-3.2,19.7-3.2c14,0,25.6,4.1,34.9,12.3c9.3,8.2,13.9,19.2,13.9,32.9c0,6.2-1.2,11.7-3.6,16.7c-2.4,5-7.5,11.2-15.2,18.7c-7.8,7.5-12.9,12.7-15.5,15.9c-2.5,3.2-4.5,6.9-5.8,11.3c-1.3,4.4-1.7,4.3-1.7,6.6h-20.3c0-2.9,0.7-4.5,2.1-9.6c1.4-5.2,3.5-9.7,6.2-13.5c2.8-3.9,7.8-9.5,15-17c7.2-7.4,11.9-12.9,13.9-16.3s3.1-8.4,3.1-15.1c0-6.7-2.4-12.6-7.2-17.7S141.2,65,132.1,65c-20.4,0-30.7,12.1-30.7,36.4H81.2L81.2,101.4z M141.6,206.3h-22.4v-23.5h22.4V206.3L141.6,206.3z"/></g></g>
</svg>
