<?xml version="1.0" encoding="utf-8"?>
<svg viewBox="24 24 208 208" width="208px" height="208px" xmlns="http://www.w3.org/2000/svg">
  <g transform="matrix(1, 0, 0, 1, 0, 1.7763568394002505e-15)">
    <title>Metronome</title>
    <path d="M 228 52 L 228 204 C 228 217.24 217.24 228 204 228 L 52 228 C 38.76 228 28 217.24 28 204 L 28 52 C 28 38.76 38.76 28 52 28 L 204 28 C 217.24 28 228 38.76 228 52 Z" fill="#008080" fill-rule="nonzero" stroke="none" stroke-width="1" stroke-linecap="butt" stroke-linejoin="miter" stroke-miterlimit="10" stroke-dasharray="" stroke-dashoffset="0" font-family="none" font-weight="none" font-size="none" text-anchor="none" style="mix-blend-mode: normal;">
      <title>Top BG</title>
    </path>
    <path d="M 228 206 C 228 211.824 217.24 228 204 228 L 52 228 C 38.76 228 28 213.824 28 208 L 28 156 C 28 147.164 35.164 140 44 140 L 212 140 C 220.836 140 228 147.164 228 156 L 228 206 Z" fill-rule="nonzero" stroke="none" stroke-width="1" stroke-linecap="butt" stroke-linejoin="miter" stroke-miterlimit="10" stroke-dasharray="" stroke-dashoffset="0" font-family="none" font-weight="none" font-size="none" text-anchor="none" style="mix-blend-mode: normal;" fill="#3c3e3d">
      <title>Bottom BG</title>
    </path>
    <path d="M 68 148 C 70.208 148 72 146.208 72 144 L 72 136 C 72 133.792 70.208 132 68 132 C 65.792 132 64 133.792 64 136 L 64 144 C 64 146.208 65.792 148 68 148 Z M 48 132 C 45.792 132 44 133.792 44 136 L 44 144 C 44 146.208 45.792 148 48 148 C 50.208 148 52 146.208 52 144 L 52 136 C 52 133.792 50.208 132 48 132 Z M 128 148 C 130.208 148 132 146.208 132 144 L 132 136 C 132 133.792 130.208 132 128 132 C 125.792 132 124 133.792 124 136 L 124 144 C 124 146.208 125.792 148 128 148 Z M 148 148 C 150.208 148 152 146.208 152 144 L 152 136 C 152 133.792 150.208 132 148 132 C 145.792 132 144 133.792 144 136 L 144 144 C 144 146.208 145.792 148 148 148 Z M 168 148 C 170.208 148 172 146.208 172 144 L 172 136 C 172 133.792 170.208 132 168 132 C 165.792 132 164 133.792 164 136 L 164 144 C 164 146.208 165.792 148 168 148 Z M 188 148 C 190.208 148 192 146.208 192 144 L 192 136 C 192 133.792 190.208 132 188 132 C 185.792 132 184 133.792 184 136 L 184 144 C 184 146.208 185.792 148 188 148 Z M 208 132 C 205.792 132 204 133.792 204 136 L 204 144 C 204 146.208 205.792 148 208 148 C 210.208 148 212 146.208 212 144 L 212 136 C 212 133.792 210.208 132 208 132 Z M 88 148 C 90.208 148 92 146.208 92 144 L 92 136 C 92 133.792 90.208 132 88 132 C 85.792 132 84 133.792 84 136 L 84 144 C 84 146.208 85.792 148 88 148 Z M 108 148 C 110.208 148 112 146.208 112 144 L 112 136 C 112 133.792 110.208 132 108 132 C 105.792 132 104 133.792 104 136 L 104 144 C 104 146.208 105.792 148 108 148 Z" fill="#000000" fill-rule="nonzero" stroke="none" stroke-width="1" stroke-linecap="butt" stroke-linejoin="miter" stroke-miterlimit="10" stroke-dasharray="" stroke-dashoffset="0" font-family="none" font-weight="none" font-size="none" text-anchor="none" style="mix-blend-mode: normal;">
      <title>Dashes</title>
    </path>
    <g>
      <title>Ring 3</title>
      <path d="M 196 228 L 60 228 C 60 190.44 90.44 160 128 160 C 165.56 160 196 190.44 196 228 Z" fill="#ffa500" fill-rule="nonzero" stroke="none" stroke-width="1" stroke-linecap="butt" stroke-linejoin="miter" stroke-miterlimit="10" stroke-dasharray="" stroke-dashoffset="0" font-family="none" font-weight="none" font-size="none" text-anchor="none" style="mix-blend-mode: normal;">
        <title>Ring 3 Fill</title>
      </path>
      <path d="M 196 232 L 60 232 C 57.788 232 56 230.212 56 228 C 56 188.3 88.3 156 128 156 C 167.7 156 200 188.3 200 228 C 200 230.212 198.212 232 196 232 Z M 64.128 224 L 191.876 224 C 189.804 190.568 161.948 164 128 164 C 94.052 164 66.196 190.568 64.128 224 Z" fill="#000000" fill-rule="nonzero" stroke="none" stroke-width="1" stroke-linecap="butt" stroke-linejoin="miter" stroke-miterlimit="10" stroke-dasharray="" stroke-dashoffset="0" font-family="none" font-weight="none" font-size="none" text-anchor="none" style="mix-blend-mode: normal;">
        <title>Ring 3 Frame</title>
      </path>
    </g>
    <g>
      <title>Ring 2</title>
      <path d="M 176 228 L 80 228 C 80 221.44 81.32 215.2 83.68 209.52 C 90.92 192.2 108 180 128 180 C 148 180 165.08 192.2 172.32 209.52 C 174.68 215.2 176 221.44 176 228 Z" fill-rule="nonzero" stroke="none" stroke-width="1" stroke-linecap="butt" stroke-linejoin="miter" stroke-miterlimit="10" stroke-dasharray="" stroke-dashoffset="0" font-family="none" font-weight="none" font-size="none" text-anchor="none" style="mix-blend-mode: normal; fill: rgb(0, 128, 128);">
        <title>Ring 2 Fill</title>
      </path>
      <path d="M 172.32 209.52 C 169.72 211.16 166.76 212 163.8 212 C 159.4 212 155.04 210.2 151.88 206.68 C 145.8 199.88 137.08 196 128 196 C 118.92 196 110.2 199.88 104.12 206.68 C 98.84 212.56 90.16 213.64 83.68 209.52 C 90.92 192.2 108 180 128 180 C 148 180 165.08 192.2 172.32 209.52 Z" fill-rule="nonzero" stroke="none" stroke-width="1" stroke-linecap="butt" stroke-linejoin="miter" stroke-miterlimit="10" stroke-dasharray="" stroke-dashoffset="0" font-family="none" font-weight="none" font-size="none" text-anchor="none" style="mix-blend-mode: normal; fill: rgb(0, 140, 140);">
        <title>Ring 2 Accent</title>
      </path>
      <path d="M 176 232 L 80 232 C 77.788 232 76 230.212 76 228 C 76 199.328 99.328 176 128 176 C 156.672 176 180 199.328 180 228 C 180 230.212 178.212 232 176 232 Z M 84.18 224 L 171.82 224 C 169.796 201.604 150.916 184 128 184 C 105.084 184 86.208 201.604 84.18 224 Z" fill="#000000" fill-rule="nonzero" stroke="none" stroke-width="1" stroke-linecap="butt" stroke-linejoin="miter" stroke-miterlimit="10" stroke-dasharray="" stroke-dashoffset="0" font-family="none" font-weight="none" font-size="none" text-anchor="none" style="mix-blend-mode: normal;">
        <title>Ring 2 Frame</title>
      </path>
    </g>
    <g>
      <title>Ring 1</title>
      <path d="M 144 228 L 112 228 C 112 219.16 119.16 212 128 212 C 136.84 212 144 219.16 144 228 Z" fill-rule="nonzero" stroke="none" stroke-width="1" stroke-linecap="butt" stroke-linejoin="miter" stroke-miterlimit="10" stroke-dasharray="" stroke-dashoffset="0" font-family="none" font-weight="none" font-size="none" text-anchor="none" style="mix-blend-mode: normal; fill: rgb(255, 255, 0);">
        <title>Ring 1 Fill</title>
      </path>
      <path d="M 144 232 L 112 232 C 109.788 232 108 230.212 108 228 C 108 216.972 116.972 208 128 208 C 139.028 208 148 216.972 148 228 C 148 230.212 146.212 232 144 232 Z M 116.684 224 L 139.316 224 C 137.664 219.344 133.216 216 128 216 C 122.788 216 118.336 219.344 116.684 224 Z" fill="#000000" fill-rule="nonzero" stroke="none" stroke-width="1" stroke-linecap="butt" stroke-linejoin="miter" stroke-miterlimit="10" stroke-dasharray="" stroke-dashoffset="0" font-family="none" font-weight="none" font-size="none" text-anchor="none" style="mix-blend-mode: normal;">
        <title>Ring 1 Frame</title>
      </path>
    </g>
    <g>
      <title>Display</title>
      <path d="M 196 120 L 60 120 C 55.58 120 52 116.42 52 112 L 52 56 C 52 51.58 55.58 48 60 48 L 196 48 C 200.42 48 204 51.58 204 56 L 204 112 C 204 116.42 200.42 120 196 120 Z" fill="#3c3e3d" fill-rule="nonzero" stroke="none" stroke-width="1" stroke-linecap="butt" stroke-linejoin="miter" stroke-miterlimit="10" stroke-dasharray="" stroke-dashoffset="0" font-family="none" font-weight="none" font-size="none" text-anchor="none" style="mix-blend-mode: normal;">
        <title>Display Fill</title>
      </path>
      <path d="M 204 120 L 52 120 L 52 116 C 52 107.164 59.164 100 68 100 L 188 100 C 196.836 100 204 107.164 204 116 L 204 120 Z" fill-rule="nonzero" stroke="none" stroke-width="1" stroke-linecap="butt" stroke-linejoin="miter" stroke-miterlimit="10" stroke-dasharray="" stroke-dashoffset="0" font-family="none" font-weight="none" font-size="none" text-anchor="none" style="mix-blend-mode: normal; fill: rgb(46, 49, 47);">
        <title>Display Accent</title>
      </path>
      <g>
        <title>Note</title>
        <path d="M 86 78 C 84.896 78 84 77.104 84 76 L 84 62 C 84 60.896 84.896 60 86 60 C 87.104 60 88 60.896 88 62 L 88 76 C 88 77.104 87.108 78 86 78 Z" fill="#fffcfa" fill-rule="nonzero" stroke="none" stroke-width="1" stroke-linecap="butt" stroke-linejoin="miter" stroke-miterlimit="10" stroke-dasharray="" stroke-dashoffset="0" font-family="none" font-weight="none" font-size="none" text-anchor="none" style="mix-blend-mode: normal;"/>
        <ellipse cx="82" cy="76" rx="6" ry="4" fill="#fffcfa" fill-rule="nonzero" stroke="none" stroke-width="1" stroke-linecap="butt" stroke-linejoin="miter" stroke-miterlimit="10" stroke-dasharray="" stroke-dashoffset="0" font-family="none" font-weight="none" font-size="none" text-anchor="none" style="mix-blend-mode: normal;"/>
      </g>
      <g>
        <title>Number</title>
        <path d="M 106 80 C 104.896 80 104 79.104 104 78 L 104 62 C 104 60.896 104.896 60 106 60 C 107.104 60 108 60.896 108 62 L 108 78 C 108 79.104 107.108 80 106 80 Z" fill="#fffcfa" fill-rule="nonzero" stroke="none" stroke-width="1" stroke-linecap="butt" stroke-linejoin="miter" stroke-miterlimit="10" stroke-dasharray="" stroke-dashoffset="0" font-family="none" font-weight="none" font-size="none" text-anchor="none" style="mix-blend-mode: normal;">
          <title>1</title>
        </path>
        <path d="M 122.239 80.18 L 114.239 80.18 C 113.135 80.18 112.239 79.284 112.239 78.18 L 112.239 62.18 C 112.239 61.076 113.135 60.18 114.239 60.18 L 122.239 60.18 C 123.343 60.18 124.239 61.076 124.239 62.18 L 124.239 78.18 C 124.239 79.284 123.347 80.18 122.239 80.18 Z M 116.239 76.18 L 120.239 76.18 L 120.239 64.18 L 116.239 64.18 L 116.239 76.18 Z" fill="#fffcfa" fill-rule="nonzero" stroke="none" stroke-width="1" stroke-linecap="butt" stroke-linejoin="miter" stroke-miterlimit="10" stroke-dasharray="" stroke-dashoffset="0" font-family="none" font-weight="none" font-size="none" text-anchor="none" style="mix-blend-mode: normal;">
          <title>0</title>
        </path>
        <path d="M 138 80 L 130 80 C 128.896 80 128 79.104 128 78 L 128 62 C 128 60.896 128.896 60 130 60 L 138 60 C 139.104 60 140 60.896 140 62 L 140 78 C 140 79.104 139.108 80 138 80 Z M 132 76 L 136 76 L 136 64 L 132 64 L 132 76 Z" fill="#fffcfa" fill-rule="nonzero" stroke="none" stroke-width="1" stroke-linecap="butt" stroke-linejoin="miter" stroke-miterlimit="10" stroke-dasharray="" stroke-dashoffset="0" font-family="none" font-weight="none" font-size="none" text-anchor="none" style="mix-blend-mode: normal;">
          <title>0</title>
        </path>
      </g>
      <g>
        <title>Beats</title>
        <g style="">
          <title>Beat 1</title>
          <rect x="78" y="90" width="16" height="16" fill="#ffff00" fill-rule="nonzero" stroke="none" stroke-width="1" stroke-linecap="butt" stroke-linejoin="miter" stroke-miterlimit="10" stroke-dasharray="" stroke-dashoffset="0" font-family="none" font-weight="none" font-size="none" text-anchor="none" style="mix-blend-mode: normal;"/>
          <path d="M 94 108 L 78 108 C 76.896 108 76 107.104 76 106 L 76 90 C 76 88.896 76.896 88 78 88 L 94 88 C 95.104 88 96 88.896 96 90 L 96 106 C 96 107.104 95.108 108 94 108 Z M 80 104 L 92 104 L 92 92 L 80 92 L 80 104 Z" fill="#000000" fill-rule="nonzero" stroke="none" stroke-width="1" stroke-linecap="butt" stroke-linejoin="miter" stroke-miterlimit="10" stroke-dasharray="" stroke-dashoffset="0" font-family="none" font-weight="none" font-size="none" text-anchor="none" style="mix-blend-mode: normal;"/>
        </g>
        <g style="">
          <title>Beat 2</title>
          <rect x="106" y="90" width="16" height="16" fill="#ffa500" fill-rule="nonzero" stroke="none" stroke-width="1" stroke-linecap="butt" stroke-linejoin="miter" stroke-miterlimit="10" stroke-dasharray="" stroke-dashoffset="0" font-family="none" font-weight="none" font-size="none" text-anchor="none" style="mix-blend-mode: normal;"/>
          <path d="M 122 108 L 106 108 C 104.896 108 104 107.104 104 106 L 104 90 C 104 88.896 104.896 88 106 88 L 122 88 C 123.104 88 124 88.896 124 90 L 124 106 C 124 107.104 123.108 108 122 108 Z M 108 104 L 120 104 L 120 92 L 108 92 L 108 104 Z" fill="#000000" fill-rule="nonzero" stroke="none" stroke-width="1" stroke-linecap="butt" stroke-linejoin="miter" stroke-miterlimit="10" stroke-dasharray="" stroke-dashoffset="0" font-family="none" font-weight="none" font-size="none" text-anchor="none" style="mix-blend-mode: normal;"/>
        </g>
        <g>
          <title>Beat 3</title>
          <rect x="134" y="90" width="16" height="16" fill="#ffa500" fill-rule="nonzero" stroke="none" stroke-width="1" stroke-linecap="butt" stroke-linejoin="miter" stroke-miterlimit="10" stroke-dasharray="" stroke-dashoffset="0" font-family="none" font-weight="none" font-size="none" text-anchor="none" style="mix-blend-mode: normal;"/>
          <path d="M 150 108 L 134 108 C 132.896 108 132 107.104 132 106 L 132 90 C 132 88.896 132.896 88 134 88 L 150 88 C 151.104 88 152 88.896 152 90 L 152 106 C 152 107.104 151.108 108 150 108 Z M 136 104 L 148 104 L 148 92 L 136 92 L 136 104 Z" fill="#000000" fill-rule="nonzero" stroke="none" stroke-width="1" stroke-linecap="butt" stroke-linejoin="miter" stroke-miterlimit="10" stroke-dasharray="" stroke-dashoffset="0" font-family="none" font-weight="none" font-size="none" text-anchor="none" style="mix-blend-mode: normal;"/>
        </g>
        <g transform="matrix(4, 0, 0, 4, 0, 0)" fill="none" fill-rule="nonzero" stroke="none" stroke-width="1" stroke-linecap="butt" stroke-linejoin="miter" stroke-miterlimit="10" stroke-dasharray="" stroke-dashoffset="0" font-family="none" font-weight="none" font-size="none" text-anchor="none" style="mix-blend-mode: normal;">
          <title>Beat 4</title>
          <rect x="40.5" y="22.5" width="4" height="4" fill="#ffa500"/>
          <path d="M44.5,27h-4c-0.276,0 -0.5,-0.224 -0.5,-0.5v-4c0,-0.276 0.224,-0.5 0.5,-0.5h4c0.276,0 0.5,0.224 0.5,0.5v4c0,0.276 -0.223,0.5 -0.5,0.5zM41,26h3v-3h-3z" fill="#000000"/>
        </g>
      </g>
      <path d="M 196 124 L 60 124 C 53.384 124 48 118.616 48 112 L 48 56 C 48 49.384 53.384 44 60 44 L 196 44 C 202.616 44 208 49.384 208 56 L 208 112 C 208 118.616 202.62 124 196 124 Z M 60 52 C 57.792 52 56 53.792 56 56 L 56 112 C 56 114.208 57.792 116 60 116 L 196 116 C 198.208 116 200 114.208 200 112 L 200 56 C 200 53.792 198.208 52 196 52 L 60 52 Z" fill="#000000" fill-rule="nonzero" stroke="none" stroke-width="1" stroke-linecap="butt" stroke-linejoin="miter" stroke-miterlimit="10" stroke-dasharray="" stroke-dashoffset="0" font-family="none" font-weight="none" font-size="none" text-anchor="none" style="mix-blend-mode: normal;">
        <title>Display Frame</title>
      </path>
    </g>
    <path d="M 204 232 L 52 232 C 36.564 232 24 219.436 24 204 L 24 52 C 24 36.564 36.564 24 52 24 L 204 24 C 219.436 24 232 36.564 232 52 L 232 204 C 232 219.436 219.44 232 204 232 Z M 52 32 C 40.972 32 32 40.972 32 52 L 32 204 C 32 215.028 40.972 224 52 224 L 204 224 C 215.028 224 224 215.028 224 204 L 224 52 C 224 40.972 215.028 32 204 32 L 52 32 Z" fill="#000000" fill-rule="nonzero" stroke="none" stroke-width="1" stroke-linecap="butt" stroke-linejoin="miter" stroke-miterlimit="10" stroke-dasharray="" stroke-dashoffset="0" font-family="none" font-weight="none" font-size="none" text-anchor="none" style="mix-blend-mode: normal;">
      <title>Outer Frame</title>
    </path>
  </g>
</svg>
